<svg width="200" height="50" viewBox="0 0 200 50" xmlns="http://www.w3.org/2000/svg">
  <!-- Orange 'D' with motorcycle -->
  <g fill="#FF5F1F">
    <path d="M30,10 C40,10 48,20 48,30 C48,40 40,50 30,50 L10,50 L10,10 L30,10 Z" />
  </g>
  <!-- Motorcycle rider icon -->
  <g fill="white">
    <circle cx="20" cy="22" r="5" />
    <path d="M15,27 C10,30 12,35 15,37 C20,40 25,35 25,30 L15,27 Z" />
  </g>
  <!-- Speed lines -->
  <g fill="white" stroke="white">
    <line x1="2" y1="25" x2="12" y2="25" stroke-width="2" />
    <line x1="3" y1="30" x2="13" y2="30" stroke-width="2" />
    <line x1="4" y1="35" x2="14" y2="35" stroke-width="2" />
  </g>
  <!-- "roppin" text -->
  <g fill="#1A3A5A">
    <path d="M65,20 L65,40 L58,40 L58,20 L65,20 Z" />
    <circle cx="61.5" cy="15" r="3.5" />
    <path d="M70,20 L77,20 L77,23 C78,21 81,19 84,19 C90,19 95,24 95,30 C95,36 90,41 84,41 C81,41 78,40 77,38 L77,48 L70,48 L70,20 Z M78,30 C78,33 80,35 83,35 C86,35 88,33 88,30 C88,27 86,25 83,25 C80,25 78,27 78,30 Z" />
    <path d="M100,20 L107,20 L107,23 C108,21 111,19 114,19 C120,19 125,24 125,30 C125,36 120,41 114,41 C111,41 108,40 107,38 L107,48 L100,48 L100,20 Z M108,30 C108,33 110,35 113,35 C116,35 118,33 118,30 C118,27 116,25 113,25 C110,25 108,27 108,30 Z" />
    <path d="M130,20 L137,20 L137,23 C138,21 141,19 144,19 C150,19 155,24 155,30 C155,36 150,41 144,41 C141,41 138,40 137,38 L137,48 L130,48 L130,20 Z M138,30 C138,33 140,35 143,35 C146,35 148,33 148,30 C148,27 146,25 143,25 C140,25 138,27 138,30 Z" />
    <path d="M157,30 C157,24 162,19 168,19 C174,19 179,24 179,30 C179,36 174,41 168,41 C162,41 157,36 157,30 Z M172,30 C172,27 170,25 168,25 C165,25 163,27 163,30 C163,33 165,35 168,35 C170,35 172,33 172,30 Z" />
    <path d="M180,20 L187,20 L187,40 L180,40 L180,20 Z" />
    <circle cx="183.5" cy="15" r="3.5" />
  </g>
  <!-- Tagline -->
  <g fill="#1A3A5A" font-family="Arial" font-size="8">
    <text x="58" y="47">zip it.Ship it.Drop it</text>
  </g>
</svg>
