<svg version="1.1" id="Layer_1" xmlns="http://www.w3.org/2000/svg" xmlns:xlink="http://www.w3.org/1999/xlink" x="0px" y="0px"
	 width="100%" viewBox="0 0 497 497" enable-background="new 0 0 497 497" xml:space="preserve">
<path fill="#F26225" opacity="1.000000" stroke="none" 
	d="
M334.000000,498.000000 
	C222.666687,498.000000 111.833389,498.000000 1.000059,498.000000 
	C1.000040,332.333405 1.000040,166.666794 1.000020,1.000148 
	C166.666565,1.000099 332.333130,1.000099 497.999756,1.000049 
	C497.999847,166.666519 497.999847,332.333038 497.999939,497.999786 
	C443.500000,498.000000 389.000000,498.000000 334.000000,498.000000 
M150.418472,259.098938 
	C150.199539,259.313599 149.979630,259.527283 149.267059,260.058990 
	C148.831207,260.692657 148.395355,261.326294 147.436951,262.433411 
	C141.910599,271.657898 142.932144,283.382965 150.095200,289.576141 
	C150.307419,289.796631 150.517212,290.019409 150.953262,290.744690 
	C151.294159,291.173615 151.635040,291.602539 152.388657,292.387115 
	C152.845779,292.680176 153.302887,292.973236 154.076248,293.854187 
	C157.490250,296.349152 160.904266,298.844116 163.381409,300.654388 
	C162.040710,302.984283 159.944077,305.246216 159.389923,307.837982 
	C157.353928,317.360657 155.655380,326.966675 154.213776,336.598785 
	C153.748245,339.709229 154.464142,342.996490 154.754303,346.831329 
	C155.673401,347.419403 156.567612,348.449829 157.516769,348.503204 
	C159.471848,348.613159 161.456100,348.031342 163.428650,348.029358 
	C196.391937,347.996155 229.355530,347.938324 262.318542,348.042969 
	C276.970215,348.089508 291.602936,348.387360 305.813873,343.881073 
	C314.495789,341.128021 323.361389,338.810181 330.949127,332.097443 
	C333.722290,330.145691 336.495453,328.193909 339.591309,325.917267 
	C339.807739,325.701965 340.025726,325.488220 340.739288,325.040314 
	C341.182159,324.719757 341.625031,324.399170 342.666656,323.870483 
	C343.532440,322.998718 344.398254,322.126923 345.931763,321.079285 
	C349.031830,317.166077 352.131927,313.252838 355.782043,309.149231 
	C356.255035,308.819550 356.728027,308.489899 357.525543,307.690125 
	C357.808075,307.193115 358.090576,306.696106 358.966309,305.906494 
	C359.994293,304.848724 361.359894,303.961884 361.996002,302.705658 
	C366.449524,293.910614 372.143677,285.676849 373.966461,275.683319 
	C375.088470,269.531799 377.518768,263.483032 377.742523,257.329224 
	C378.392303,239.457214 379.502533,221.386490 372.012177,204.383362 
	C368.706360,196.879150 366.881622,188.497772 359.843964,182.274963 
	C355.907990,177.276733 352.383453,171.860153 347.883911,167.434967 
	C345.121887,164.718597 340.867249,163.519989 336.916351,161.088684 
	C328.248871,153.849854 317.896118,149.801697 307.090332,148.226089 
	C293.511505,146.246124 279.687042,145.484711 265.946960,145.183090 
	C244.319199,144.708344 222.672882,144.980972 201.035675,145.126617 
	C197.263702,145.152008 193.497986,146.109497 189.007050,146.848419 
	C188.016159,148.507065 186.538528,150.051910 186.119461,151.844254 
	C184.394684,159.220825 183.657730,166.896896 181.257492,174.025101 
	C179.366592,179.640732 179.684235,184.797440 181.264908,190.818008 
	C185.948700,191.241074 190.649933,191.527985 195.311325,192.125732 
	C199.920517,192.716812 202.194321,190.851822 202.844193,185.929947 
	C203.807220,185.158722 204.770248,184.387497 205.363922,183.912064 
	C205.811798,188.668259 206.250153,193.323044 206.606369,197.105865 
	C201.158737,204.406204 195.899506,211.454041 190.739288,218.369202 
	C190.498917,213.645782 190.031204,208.749344 190.064728,203.856339 
	C190.095703,199.337677 188.294540,197.595291 183.748505,197.806458 
	C177.438904,198.099564 171.098724,198.130386 164.787079,197.881485 
	C157.283966,197.585587 156.457428,197.978317 156.108795,205.476273 
	C155.943436,209.033325 154.299988,210.056793 151.092758,210.017044 
	C144.437241,209.934570 137.779816,210.006104 131.123169,210.015335 
	C121.637535,210.028488 112.149063,209.906998 102.667305,210.105637 
	C96.706642,210.230545 95.192390,212.608810 97.052162,217.959381 
	C97.052162,217.959381 97.130089,217.864120 97.071831,218.633591 
	C97.023323,221.551529 97.700058,223.164139 101.193993,221.732697 
	C102.962357,221.008209 105.099472,221.002411 107.072083,220.988663 
	C116.402336,220.923538 125.737885,221.147507 135.062607,220.913010 
	C141.827255,220.742920 149.044815,223.251831 155.729858,216.535736 
	C155.729858,221.526642 155.729858,224.986221 155.729858,228.789383 
	C153.569290,228.324554 151.671967,227.547455 149.784637,227.571060 
	C138.723694,227.709396 127.659584,227.919464 116.612900,228.447601 
	C115.275665,228.511520 114.036812,230.633194 112.353554,232.300400 
	C110.677368,236.147873 112.204994,238.377701 116.040276,239.161652 
	C118.296165,239.622787 120.629013,239.897125 122.929993,239.915710 
	C133.712982,240.002808 144.496964,239.994400 155.280487,239.970016 
	C158.657715,239.962372 161.361679,240.563446 160.533386,245.228241 
	C160.321060,245.461304 160.135696,245.714142 159.458710,246.454651 
	C158.558502,248.875763 157.658295,251.296875 156.135727,253.924469 
	C155.014847,254.880203 153.893982,255.835938 152.423965,257.111481 
	C152.187790,257.321838 151.964447,257.545044 151.409897,258.104309 
	C151.174011,258.313721 150.951141,258.536163 150.418472,259.098938 
M102.163910,231.837067 
	C102.163910,231.837067 102.115234,231.807770 101.776917,231.121033 
	C96.667023,230.980789 91.550262,230.654572 86.452499,230.842819 
	C85.306671,230.885132 83.246552,232.828140 83.339905,233.713455 
	C83.491714,235.153198 85.007088,237.545517 86.060890,237.607773 
	C91.167862,237.909576 96.361748,237.955643 101.426407,237.314606 
	C104.593933,236.913712 104.760406,234.475372 102.163910,231.837067 
M135.247345,256.901306 
	C140.812210,257.949677 143.257095,254.724167 145.149490,249.714523 
	C136.891815,249.714523 129.126984,249.533295 121.384476,249.868195 
	C119.845612,249.934753 118.392258,251.978485 116.899467,253.110458 
	C118.372612,254.353485 119.738617,256.474396 121.339630,256.669800 
	C125.608101,257.190765 129.977676,256.883392 135.247345,256.901306 
M97.457756,249.317520 
	C94.154114,249.460373 90.790741,249.287964 87.575455,249.897156 
	C86.240219,250.150131 85.221283,252.072525 84.058502,253.235748 
	C85.276817,254.393234 86.451706,256.490021 87.720840,256.548706 
	C93.828964,256.831146 99.972328,256.722473 106.077942,256.344727 
	C107.172058,256.277039 109.124802,254.098129 108.954285,253.235275 
	C108.681854,251.856720 107.151588,250.067978 105.813179,249.704559 
	C103.480553,249.071182 100.889191,249.390625 97.457756,249.317520 
M118.569260,276.038757 
	C122.033104,276.063019 125.556793,276.469025 128.933868,275.939758 
	C130.470093,275.698975 131.716309,273.607849 133.094070,272.356018 
	C131.792496,271.185638 130.573471,269.137634 129.174194,269.006012 
	C124.593239,268.575104 119.920135,268.564545 115.341072,269.003601 
	C113.912033,269.140625 112.668915,271.216644 111.340691,272.405060 
	C112.465675,273.597382 113.456680,274.980774 114.771324,275.902618 
	C115.443634,276.374023 116.695602,276.018738 118.569260,276.038757 
z"/>
<path fill="#DD7140" opacity="1.000000" stroke="none" 
	d="
M97.158684,217.898697 
	C95.192390,212.608810 96.706642,210.230545 102.667305,210.105637 
	C112.149063,209.906998 121.637535,210.028488 131.123169,210.015335 
	C137.779816,210.006104 144.437241,209.934570 151.092758,210.017044 
	C154.299988,210.056793 155.943436,209.033325 156.108795,205.476273 
	C156.457428,197.978317 157.283966,197.585587 164.787079,197.881485 
	C171.098724,198.130386 177.438904,198.099564 183.748505,197.806458 
	C188.294540,197.595291 190.095703,199.337677 190.064728,203.856339 
	C190.031204,208.749344 190.498917,213.645782 190.739288,218.369202 
	C195.899506,211.454041 201.158737,204.406204 206.606369,197.105865 
	C206.250153,193.323044 205.811798,188.668259 205.363922,183.912064 
	C204.770248,184.387497 203.807220,185.158722 202.471893,186.003036 
	C202.099594,186.076126 201.858337,185.884109 201.903778,185.535614 
	C211.269653,167.606064 230.893478,165.417679 241.127304,180.900818 
	C240.986526,180.999237 240.713821,181.208145 240.453613,181.194244 
	C239.803650,181.530151 239.413895,181.879990 239.024139,182.229828 
	C239.717056,182.487671 240.409988,182.745544 241.260071,183.217468 
	C241.616516,183.917191 241.815796,184.402847 241.689194,185.040375 
	C240.312729,186.976242 238.900482,188.646088 238.293030,190.570038 
	C237.282959,193.769089 239.688202,198.129181 235.017563,199.650543 
	C240.334137,186.195190 233.182922,174.789490 220.588120,176.136246 
	C215.078690,176.725372 209.510971,181.621216 208.252625,186.983231 
	C206.858871,192.922256 208.179611,196.280609 212.870911,199.415680 
	C211.502899,200.158600 210.290344,200.607666 208.728394,201.133377 
	C206.679291,202.188171 204.442459,202.765472 203.365616,204.208420 
	C195.321121,214.987747 186.881180,225.687317 188.273422,240.947006 
	C185.857086,239.130157 183.378387,237.220596 182.147476,234.701355 
	C180.793213,231.929657 179.430695,230.826752 176.254013,230.854294 
	C157.306427,231.018646 138.356537,230.899063 119.407982,230.990936 
	C117.333054,231.000992 115.261711,231.751190 113.079651,232.068832 
	C112.970596,231.979568 112.752357,231.801178 112.752357,231.801178 
	C114.036812,230.633194 115.275665,228.511520 116.612900,228.447601 
	C127.659584,227.919464 138.723694,227.709396 149.784637,227.571060 
	C151.671967,227.547455 153.569290,228.324554 155.729858,228.789383 
	C155.729858,224.986221 155.729858,221.526642 155.729858,216.535736 
	C149.044815,223.251831 141.827255,220.742920 135.062607,220.913010 
	C125.737885,221.147507 116.402336,220.923538 107.072083,220.988663 
	C105.099472,221.002411 102.962357,221.008209 101.193993,221.732697 
	C97.700058,223.164139 97.023323,221.551529 97.485313,218.403732 
	C100.337463,218.487305 102.774490,219.056015 105.215073,219.071655 
	C118.523270,219.157043 131.838684,218.867874 145.137939,219.221558 
	C150.343384,219.360001 152.470978,216.664108 154.622223,212.234924 
	C136.341644,212.234924 118.619102,212.184784 100.897301,212.276276 
	C97.249840,212.295105 96.719299,214.898239 97.158684,217.898697 
M177.452271,200.068985 
	C172.455856,200.020599 167.456818,200.053391 162.463989,199.893158 
	C159.501709,199.798080 158.225693,200.982269 158.271393,203.974945 
	C158.370544,210.469055 158.137070,216.975220 158.484299,223.452606 
	C158.552277,224.720673 160.581848,226.870285 161.789627,226.929825 
	C169.432312,227.306473 177.098343,227.207565 184.756653,227.269409 
	C187.713287,227.293289 188.882263,225.828186 188.781906,222.898392 
	C188.639435,218.739014 188.739929,214.571579 188.719635,210.407684 
	C188.669357,200.089355 188.665497,200.089371 177.452271,200.068985 
M208.848267,180.246063 
	C208.955231,180.098206 209.062195,179.950363 209.169159,179.802490 
	C209.012970,179.895615 208.856781,179.988739 208.848267,180.246063 
M186.246689,236.144455 
	C186.096069,236.034973 185.945450,235.925491 185.794815,235.816025 
	C185.889725,235.975861 185.984650,236.135696 186.246689,236.144455 
M183.740768,231.852371 
	C183.894028,231.963455 184.047287,232.074524 184.200546,232.185593 
	C184.103943,232.023407 184.007355,231.861221 183.740768,231.852371 
z"/>
<path fill="#DA7646" opacity="1.000000" stroke="none" 
	d="
M154.639603,346.202850 
	C154.464142,342.996490 153.748245,339.709229 154.213776,336.598785 
	C155.655380,326.966675 157.353928,317.360657 159.389923,307.837982 
	C159.944077,305.246216 162.040710,302.984283 163.381409,300.654388 
	C160.904266,298.844116 157.490250,296.349152 154.026215,293.437714 
	C153.976181,293.021240 154.192764,292.776581 154.518265,292.892212 
	C164.024979,300.335693 173.957870,302.042664 184.552414,296.490814 
	C188.466034,294.439911 191.923019,291.587067 193.101456,286.872223 
	C187.295044,284.727539 186.252457,284.811401 181.179749,287.689301 
	C171.603973,293.121948 162.789978,291.352661 158.294586,283.100586 
	C159.706253,283.925690 160.846008,284.596802 161.836365,285.442780 
	C166.289307,289.246643 171.843185,289.702942 178.006775,286.163422 
	C176.271896,285.271545 175.002258,284.588104 173.706100,283.959320 
	C171.529755,282.903595 169.336517,281.882629 167.555161,280.859314 
	C171.873230,281.500488 175.770233,282.523346 179.702850,282.686127 
	C192.772644,283.227051 205.859955,283.339386 218.930878,283.859558 
	C225.448700,284.118927 231.969788,284.980896 235.798523,277.429474 
	C239.655930,290.102386 239.655930,290.102386 245.774033,296.835754 
	C241.130203,295.145447 237.369247,293.080902 236.848099,287.709595 
	C236.536697,284.499908 234.438110,284.106812 231.398285,284.487274 
	C226.181183,285.140350 220.876678,285.388947 215.615997,285.313110 
	C210.889801,285.245056 206.173187,284.512756 201.452347,284.073456 
	C201.407028,284.539307 201.361710,285.005157 201.316391,285.471039 
	C202.374619,285.677673 203.424683,285.953217 204.492416,286.079834 
	C211.567123,286.918854 212.768784,288.767578 210.742874,295.552032 
	C210.319412,296.970184 210.283035,298.499298 209.940735,299.947113 
	C208.794022,304.797333 210.637543,306.236664 215.570831,306.177704 
	C236.711533,305.924896 257.856812,306.053589 279.393616,306.040680 
	C283.423462,304.545288 287.119843,303.181396 290.682434,301.528931 
	C295.850403,299.131805 300.921661,296.526184 305.862671,294.301453 
	C302.035400,296.906708 298.310181,299.118286 294.738495,301.554901 
	C287.643768,306.395081 280.012756,308.652954 271.281158,308.493652 
	C251.805496,308.138306 232.318848,308.385162 212.836670,308.386597 
	C211.031647,308.386719 209.226639,308.386597 206.770584,308.386597 
	C207.590286,302.762207 208.439102,297.727448 208.981689,292.659912 
	C209.117294,291.393372 208.682480,289.441620 207.793274,288.803833 
	C204.853516,286.695251 196.720474,288.981293 194.778885,292.171356 
	C190.056458,299.930389 183.016388,303.691833 174.082535,304.067627 
	C170.925705,304.200409 167.731567,303.818359 164.606781,304.155731 
	C163.379410,304.288300 161.450211,305.601471 161.274017,306.623993 
	C159.015305,319.731689 157.016541,332.884155 154.875549,346.072784 
	C154.799255,346.120300 154.639603,346.202850 154.639603,346.202850 
z"/>
<path fill="#DA7646" opacity="1.000000" stroke="none" 
	d="
M330.261444,332.311981 
	C323.361389,338.810181 314.495789,341.128021 305.813873,343.881073 
	C291.602936,348.387360 276.970215,348.089508 262.318542,348.042969 
	C229.355530,347.938324 196.391937,347.996155 163.428650,348.029358 
	C161.456100,348.031342 159.471848,348.613159 157.516769,348.503204 
	C156.567612,348.449829 155.673401,347.419403 154.696960,346.517090 
	C154.639603,346.202850 154.799255,346.120300 155.186493,346.296082 
	C156.731812,346.548492 157.889877,346.691833 159.047974,346.692047 
	C193.706284,346.698761 228.369263,346.343414 263.021301,346.806854 
	C286.615753,347.122345 309.133026,343.815826 329.937775,331.925537 
	C330.046204,332.053894 330.261444,332.311981 330.261444,332.311981 
z"/>
<path fill="#DD7140" opacity="1.000000" stroke="none" 
	d="
M189.729385,146.636475 
	C193.497986,146.109497 197.263702,145.152008 201.035675,145.126617 
	C222.672882,144.980972 244.319199,144.708344 265.946960,145.183090 
	C279.687042,145.484711 293.511505,146.246124 307.090332,148.226089 
	C317.896118,149.801697 328.248871,153.849854 336.990784,161.499268 
	C337.065186,161.909851 336.843781,162.176819 336.502655,162.086441 
	C318.233063,151.280075 298.803406,146.930023 277.966187,147.166321 
	C248.664444,147.498611 219.354843,147.138550 189.968079,146.965576 
	C189.887543,146.856583 189.729385,146.636475 189.729385,146.636475 
z"/>
<path fill="#DD7140" opacity="1.000000" stroke="none" 
	d="
M360.067078,182.927902 
	C366.881622,188.497772 368.706360,196.879150 372.012177,204.383362 
	C379.502533,221.386490 378.392303,239.457214 377.742523,257.329224 
	C377.518768,263.483032 375.088470,269.531799 373.966461,275.683319 
	C372.143677,285.676849 366.449524,293.910614 361.996002,302.705658 
	C361.359894,303.961884 359.994293,304.848724 358.523590,305.960144 
	C358.080872,306.013794 357.786316,305.832123 357.889099,305.500519 
	C382.140747,264.943756 383.961426,224.471069 359.520691,183.510925 
	C359.824310,183.187073 359.945709,183.057495 360.067078,182.927902 
z"/>
<path fill="#FDEBDC" opacity="1.000000" stroke="none" 
	d="
M134.777191,256.903320 
	C129.977676,256.883392 125.608101,257.190765 121.339630,256.669800 
	C119.738617,256.474396 118.372612,254.353485 116.899467,253.110458 
	C118.392258,251.978485 119.845612,249.934753 121.384476,249.868195 
	C129.126984,249.533295 136.891815,249.714523 145.149490,249.714523 
	C143.257095,254.724167 140.812210,257.949677 134.777191,256.903320 
z"/>
<path fill="#FCECDC" opacity="1.000000" stroke="none" 
	d="
M97.932022,249.314087 
	C100.889191,249.390625 103.480553,249.071182 105.813179,249.704559 
	C107.151588,250.067978 108.681854,251.856720 108.954285,253.235275 
	C109.124802,254.098129 107.172058,256.277039 106.077942,256.344727 
	C99.972328,256.722473 93.828964,256.831146 87.720840,256.548706 
	C86.451706,256.490021 85.276817,254.393234 84.058502,253.235748 
	C85.221283,252.072525 86.240219,250.150131 87.575455,249.897156 
	C90.790741,249.287964 94.154114,249.460373 97.932022,249.314087 
z"/>
<path fill="#FEF5E8" opacity="1.000000" stroke="none" 
	d="
M118.127426,276.037903 
	C116.695602,276.018738 115.443634,276.374023 114.771324,275.902618 
	C113.456680,274.980774 112.465675,273.597382 111.340691,272.405060 
	C112.668915,271.216644 113.912033,269.140625 115.341072,269.003601 
	C119.920135,268.564545 124.593239,268.575104 129.174194,269.006012 
	C130.573471,269.137634 131.792496,271.185638 133.094055,272.356018 
	C131.716309,273.607849 130.470093,275.698975 128.933868,275.939758 
	C125.556793,276.469025 122.033104,276.063019 118.127426,276.037903 
z"/>
<path fill="#DD7140" opacity="1.000000" stroke="none" 
	d="
M160.856277,244.886154 
	C161.361679,240.563446 158.657715,239.962372 155.280487,239.970016 
	C144.496964,239.994400 133.712982,240.002808 122.929993,239.915710 
	C120.629013,239.897125 118.296165,239.622787 116.040276,239.161652 
	C112.204994,238.377701 110.677368,236.147873 112.552956,232.050781 
	C112.752357,231.801178 112.970596,231.979568 113.060699,232.456573 
	C112.604805,237.545959 115.911339,237.619568 118.950066,237.643738 
	C129.754669,237.729721 140.560425,237.714371 151.365555,237.681946 
	C159.118713,237.658676 165.935120,240.534531 172.509781,244.658020 
	C168.754364,244.851120 164.998947,245.044220 161.147217,245.148987 
	C161.050888,245.060638 160.856277,244.886154 160.856277,244.886154 
z"/>
<path fill="#DD7140" opacity="1.000000" stroke="none" 
	d="
M180.755234,190.234818 
	C179.684235,184.797440 179.366592,179.640732 181.257492,174.025101 
	C183.657730,166.896896 184.394684,159.220825 186.119461,151.844254 
	C186.538528,150.051910 188.016159,148.507065 189.368225,146.742447 
	C189.729385,146.636475 189.887543,146.856583 189.690460,147.218735 
	C186.712326,161.668076 183.931274,175.755280 181.051514,189.940613 
	C180.952835,190.038742 180.755234,190.234818 180.755234,190.234818 
z"/>
<path fill="#FEDCBF" opacity="1.000000" stroke="none" 
	d="
M102.193298,231.885681 
	C104.760406,234.475372 104.593933,236.913712 101.426407,237.314606 
	C96.361748,237.955643 91.167862,237.909576 86.060890,237.607773 
	C85.007088,237.545517 83.491714,235.153198 83.339905,233.713455 
	C83.246552,232.828140 85.306671,230.885132 86.452499,230.842819 
	C91.550262,230.654572 96.667023,230.980789 101.472443,231.447769 
	C96.891510,231.835693 92.607201,231.774277 88.344383,232.047913 
	C87.332451,232.112869 86.392586,233.300522 85.419571,233.971756 
	C86.353233,234.690781 87.246635,235.957657 88.227844,236.029800 
	C91.662788,236.282272 95.201340,236.529678 98.547005,235.926849 
	C99.959297,235.672409 100.989449,233.297012 102.193298,231.885681 
z"/>
<path fill="#DD7140" opacity="1.000000" stroke="none" 
	d="
M337.174011,161.774841 
	C340.867249,163.519989 345.121887,164.718597 347.883911,167.434967 
	C352.383453,171.860153 355.907990,177.276733 359.955505,182.601440 
	C359.945709,183.057495 359.824310,183.187073 359.280762,183.280365 
	C351.520325,176.221634 344.182068,169.199234 336.843781,162.176819 
	C336.843781,162.176819 337.065186,161.909851 337.174011,161.774841 
z"/>
<path fill="#DA7646" opacity="1.000000" stroke="none" 
	d="
M149.773254,289.249023 
	C142.932144,283.382965 141.910599,271.657898 147.879105,262.356323 
	C148.321259,262.279205 148.683411,262.597992 148.545105,262.949219 
	C144.170212,272.141998 145.520844,280.576233 150.140533,288.884521 
	C150.017929,289.005829 149.773254,289.249023 149.773254,289.249023 
z"/>
<path fill="#DD7140" opacity="1.000000" stroke="none" 
	d="
M202.221771,186.170166 
	C202.194321,190.851822 199.920517,192.716812 195.311325,192.125732 
	C190.649933,191.527985 185.948700,191.241074 181.010071,190.526413 
	C180.755234,190.234818 180.952835,190.038742 181.510010,189.948517 
	C186.384125,189.869217 190.716049,189.663376 195.013306,189.959763 
	C198.437256,190.195908 200.686829,189.112228 201.858337,185.884109 
	C201.858337,185.884109 202.099594,186.076126 202.221771,186.170166 
z"/>
<path fill="#DA7646" opacity="1.000000" stroke="none" 
	d="
M355.231995,309.339630 
	C352.131927,313.252838 349.031830,317.166077 345.479980,321.044525 
	C345.028229,321.009766 344.793579,320.763275 344.943634,320.467529 
	C348.387909,316.441986 351.682159,312.712250 355.042755,309.070007 
	C355.109131,309.157532 355.231995,309.339630 355.231995,309.339630 
z"/>
<path fill="#DA7646" opacity="1.000000" stroke="none" 
	d="
M339.268616,326.242188 
	C336.495453,328.193909 333.722290,330.145691 330.605286,332.204712 
	C330.261444,332.311981 330.046204,332.053894 330.135193,331.655853 
	C333.086304,329.434967 335.948425,327.612122 338.924927,325.902588 
	C339.039337,326.015930 339.268616,326.242188 339.268616,326.242188 
z"/>
<path fill="#DA7646" opacity="1.000000" stroke="none" 
	d="
M156.758087,253.717987 
	C157.658295,251.296875 158.558502,248.875763 159.952057,246.225525 
	C160.445389,245.996414 160.912857,246.005569 160.894058,246.382935 
	C159.661652,249.263840 158.448044,251.767395 157.115021,254.133011 
	C156.995575,253.995071 156.758087,253.717987 156.758087,253.717987 
z"/>
<path fill="#DA7646" opacity="1.000000" stroke="none" 
	d="
M152.773102,256.791656 
	C153.893982,255.835938 155.014847,254.880203 156.446899,253.821228 
	C156.758087,253.717987 156.995575,253.995071 156.946548,254.402863 
	C155.680801,255.632355 154.464066,256.454041 153.128937,257.154572 
	C153.010529,257.033386 152.773102,256.791656 152.773102,256.791656 
z"/>
<path fill="#DA7646" opacity="1.000000" stroke="none" 
	d="
M345.146118,321.132446 
	C344.398254,322.126923 343.532440,322.998718 342.208618,323.818176 
	C341.750549,323.765869 341.432404,323.453949 341.626831,323.210480 
	C342.812042,322.232422 343.802795,321.497833 344.793579,320.763275 
	C344.793579,320.763275 345.028229,321.009766 345.146118,321.132446 
z"/>
<path fill="#DA7646" opacity="1.000000" stroke="none" 
	d="
M148.140381,262.119568 
	C148.395355,261.326294 148.831207,260.692657 149.636047,260.020752 
	C150.005051,259.982483 150.251785,260.224457 150.168152,260.500427 
	C149.617493,261.383575 149.150452,261.990784 148.683411,262.597992 
	C148.683411,262.597992 148.321259,262.279205 148.140381,262.119568 
z"/>
<path fill="#DA7646" opacity="1.000000" stroke="none" 
	d="
M151.975937,292.031464 
	C151.635040,291.602539 151.294159,291.173615 150.941620,290.401154 
	C150.929977,290.057617 151.135162,289.870514 151.376541,289.983795 
	C151.949570,290.508545 152.281204,290.920044 152.453491,291.506409 
	C152.294144,291.681274 151.975937,292.031464 151.975937,292.031464 
z"/>
<path fill="#DA7646" opacity="1.000000" stroke="none" 
	d="
M153.868088,293.143768 
	C153.302887,292.973236 152.845779,292.680176 152.182297,292.209290 
	C151.975937,292.031464 152.294144,291.681274 152.693024,291.638000 
	C153.458878,291.988678 153.825821,292.382629 154.192764,292.776581 
	C154.192764,292.776581 153.976181,293.021240 153.868088,293.143768 
z"/>
<path fill="#DA7646" opacity="1.000000" stroke="none" 
	d="
M341.909241,323.922241 
	C341.625031,324.399170 341.182159,324.719757 340.396545,325.053406 
	C340.053802,325.066498 339.862213,324.857117 339.979309,324.610474 
	C340.541748,324.060547 340.987061,323.757263 341.432404,323.453949 
	C341.432404,323.453949 341.750549,323.765869 341.909241,323.922241 
z"/>
<path fill="#DA7646" opacity="1.000000" stroke="none" 
	d="
M357.201019,308.160248 
	C356.728027,308.489899 356.255035,308.819550 355.507019,309.244446 
	C355.231995,309.339630 355.109131,309.157532 355.221741,308.873871 
	C355.731232,308.246613 356.128143,307.903015 356.693848,307.709839 
	C356.862640,307.860291 357.201019,308.160248 357.201019,308.160248 
z"/>
<path fill="#DA7646" opacity="1.000000" stroke="none" 
	d="
M358.226990,306.106445 
	C358.090576,306.696106 357.808075,307.193115 357.363281,307.925171 
	C357.201019,308.160248 356.862640,307.860291 356.784058,307.447144 
	C357.065765,306.633392 357.426025,306.232758 357.786316,305.832123 
	C357.786316,305.832123 358.080872,306.013794 358.226990,306.106445 
z"/>
<path fill="#DD7140" opacity="1.000000" stroke="none" 
	d="
M160.912857,246.005569 
	C160.912857,246.005569 160.445389,245.996414 160.211365,245.991577 
	C160.135696,245.714142 160.321060,245.461304 160.694824,245.057190 
	C160.856277,244.886154 161.050888,245.060638 161.104614,245.358276 
	C161.158356,245.655930 160.912857,246.005569 160.912857,246.005569 
z"/>
<path fill="#DA7646" opacity="1.000000" stroke="none" 
	d="
M340.149506,325.171265 
	C340.025726,325.488220 339.807739,325.701965 339.429962,326.079712 
	C339.268616,326.242188 339.039337,326.015930 339.022705,325.672974 
	C339.227051,325.055756 339.512421,324.898132 339.862213,324.857117 
	C339.862213,324.857117 340.053802,325.066498 340.149506,325.171265 
z"/>
<path fill="#DA7646" opacity="1.000000" stroke="none" 
	d="
M151.753952,257.781067 
	C151.964447,257.545044 152.187790,257.321838 152.598541,256.951569 
	C152.773102,256.791656 153.010529,257.033386 153.030838,257.379669 
	C152.842270,257.999786 152.568558,258.168488 152.111099,258.119232 
	C151.992157,258.006409 151.753952,257.781067 151.753952,257.781067 
z"/>
<path fill="#DA7646" opacity="1.000000" stroke="none" 
	d="
M150.741257,258.771606 
	C150.951141,258.536163 151.174011,258.313721 151.581924,257.942688 
	C151.753952,257.781067 151.992157,258.006409 152.021957,258.352814 
	C151.779358,258.878693 151.506973,259.058136 151.111328,259.121033 
	C150.988068,259.004456 150.741257,258.771606 150.741257,258.771606 
z"/>
<path fill="#DA7646" opacity="1.000000" stroke="none" 
	d="
M149.881897,259.861237 
	C149.979630,259.527283 150.199539,259.313599 150.579865,258.935272 
	C150.741257,258.771606 150.988068,259.004456 151.021362,259.349609 
	C150.860870,259.983246 150.593262,260.159821 150.251785,260.224457 
	C150.251785,260.224457 150.005051,259.982483 149.881897,259.861237 
z"/>
<path fill="#DA7646" opacity="1.000000" stroke="none" 
	d="
M150.827301,290.151062 
	C150.517212,290.019409 150.307419,289.796631 149.934235,289.412598 
	C149.773254,289.249023 150.017929,289.005829 150.361328,288.998413 
	C150.950027,289.234375 151.093491,289.527527 151.135162,289.870514 
	C151.135162,289.870514 150.929977,290.057617 150.827301,290.151062 
z"/>
<path fill="#FEFCFA" opacity="1.000000" stroke="none" 
	d="
M339.979309,324.610474 
	C339.512421,324.898132 339.227051,325.055756 338.908295,325.559631 
	C335.948425,327.612122 333.086304,329.434967 330.026764,331.527466 
	C309.133026,343.815826 286.615753,347.122345 263.021301,346.806854 
	C228.369263,346.343414 193.706284,346.698761 159.047974,346.692047 
	C157.889877,346.691833 156.731812,346.548492 155.262787,346.248566 
	C157.016541,332.884155 159.015305,319.731689 161.274017,306.623993 
	C161.450211,305.601471 163.379410,304.288300 164.606781,304.155731 
	C167.731567,303.818359 170.925705,304.200409 174.082535,304.067627 
	C183.016388,303.691833 190.056458,299.930389 194.778885,292.171356 
	C196.720474,288.981293 204.853516,286.695251 207.793274,288.803833 
	C208.682480,289.441620 209.117294,291.393372 208.981689,292.659912 
	C208.439102,297.727448 207.590286,302.762207 206.770584,308.386597 
	C209.226639,308.386597 211.031647,308.386719 212.836670,308.386597 
	C232.318848,308.385162 251.805496,308.138306 271.281158,308.493652 
	C280.012756,308.652954 287.643768,306.395081 294.738495,301.554901 
	C298.310181,299.118286 302.035400,296.906708 305.844910,294.293427 
	C305.998657,293.993500 306.004608,294.030640 306.329163,293.961182 
	C308.116699,292.600189 309.579681,291.308655 311.019562,290.008240 
	C310.996490,289.999390 311.018555,290.043610 311.335205,289.931091 
	C323.544006,279.299896 328.332367,265.437531 330.131409,250.232224 
	C331.457672,239.022430 330.532745,228.113739 325.012329,217.974426 
	C324.994385,217.992218 325.044769,217.988602 325.048523,217.637924 
	C324.463715,216.301224 323.875153,215.315201 323.301056,214.227005 
	C323.315521,214.124832 323.127594,214.039520 323.100891,213.704422 
	C322.252441,212.096039 321.430664,210.822769 320.618256,209.489166 
	C320.627625,209.428818 320.508484,209.401962 320.382080,209.096680 
	C313.150726,198.773468 303.292358,192.644928 291.372437,191.110657 
	C279.914703,189.635849 268.221436,189.138550 256.674866,189.519791 
	C249.518463,189.756073 244.093307,189.329193 241.963211,181.482346 
	C241.890015,181.212662 241.506805,181.027145 241.268082,180.802414 
	C230.893478,165.417679 211.269653,167.606064 201.903778,185.535614 
	C200.686829,189.112228 198.437256,190.195908 195.013306,189.959763 
	C190.716049,189.663376 186.384125,189.869217 181.608688,189.850372 
	C183.931274,175.755280 186.712326,161.668076 189.770996,147.327728 
	C219.354843,147.138550 248.664444,147.498611 277.966187,147.166321 
	C298.803406,146.930023 318.233063,151.280075 336.502655,162.086441 
	C344.182068,169.199234 351.520325,176.221634 359.098572,183.474625 
	C383.961426,224.471069 382.140747,264.943756 357.889099,305.500519 
	C357.426025,306.232758 357.065765,306.633392 356.615265,307.296722 
	C356.128143,307.903015 355.731232,308.246613 355.155365,308.786346 
	C351.682159,312.712250 348.387909,316.441986 344.943634,320.467529 
	C343.802795,321.497833 342.812042,322.232422 341.626831,323.210480 
	C340.987061,323.757263 340.541748,324.060547 339.979309,324.610474 
z"/>
<path fill="#FDF9F3" opacity="1.000000" stroke="none" 
	d="
M151.376541,289.983795 
	C151.093491,289.527527 150.950027,289.234375 150.483932,288.877136 
	C145.520844,280.576233 144.170212,272.141998 148.545105,262.949219 
	C149.150452,261.990784 149.617493,261.383575 150.168152,260.500427 
	C150.593262,260.159821 150.860870,259.983246 151.144623,259.466187 
	C151.506973,259.058136 151.779358,258.878693 152.140900,258.465637 
	C152.568558,258.168488 152.842270,257.999786 153.149246,257.500854 
	C154.464066,256.454041 155.680801,255.632355 157.065979,254.540802 
	C158.448044,251.767395 159.661652,249.263840 160.894058,246.382935 
	C160.912857,246.005569 161.158356,245.655930 161.200943,245.446625 
	C164.998947,245.044220 168.754364,244.851120 172.509781,244.658020 
	C165.935120,240.534531 159.118713,237.658676 151.365555,237.681946 
	C140.560425,237.714371 129.754669,237.729721 118.950066,237.643738 
	C115.911339,237.619568 112.604805,237.545959 113.169754,232.545837 
	C115.261711,231.751190 117.333054,231.000992 119.407982,230.990936 
	C138.356537,230.899063 157.306427,231.018646 176.254013,230.854294 
	C179.430695,230.826752 180.793213,231.929657 182.147476,234.701355 
	C183.378387,237.220596 185.857086,239.130157 188.273422,240.947006 
	C186.881180,225.687317 195.321121,214.987747 203.365616,204.208420 
	C204.442459,202.765472 206.679291,202.188171 209.070038,201.243042 
	C213.494980,203.194443 217.228851,205.112823 221.053436,207.370514 
	C223.026764,210.862289 224.909393,214.014771 226.833252,217.446045 
	C227.149567,218.203125 227.424622,218.681427 227.722351,219.467590 
	C228.082993,220.264374 228.420944,220.753281 228.866714,221.492828 
	C229.293243,221.892044 229.611969,222.040665 230.117065,222.384323 
	C230.828705,222.652588 231.353973,222.725815 232.279037,222.915909 
	C235.309418,223.532806 237.939987,224.032822 240.586975,224.597565 
	C240.603378,224.662262 240.734436,224.636810 240.922211,224.854706 
	C241.950882,225.553726 242.791779,226.034836 243.610977,226.503525 
	C246.796463,222.101089 253.232224,218.702347 255.234665,221.076111 
	C257.851166,224.177795 259.836914,228.908142 259.780060,232.904861 
	C259.699707,238.545761 253.755142,236.712540 249.500931,237.630936 
	C251.469635,241.438889 253.192902,244.772095 254.937119,248.070557 
	C254.958069,248.035828 254.884155,248.069260 254.918518,248.419983 
	C256.525543,249.227020 258.114288,250.121506 259.668091,250.064484 
	C266.710693,249.806046 273.474396,250.584061 280.282318,254.222778 
	C278.960693,255.236908 278.049805,255.935883 277.128265,256.643005 
	C289.656860,270.073120 291.021088,277.423981 283.828430,291.852417 
	C283.871918,291.858734 283.882599,291.771515 283.616638,291.872803 
	C283.203766,292.311005 283.056885,292.647858 282.944336,292.982117 
	C282.978699,292.979492 282.968628,292.911316 282.702637,292.983734 
	C282.274414,293.368896 282.112213,293.681641 281.977631,293.997742 
	C282.005249,294.001129 281.982880,293.950165 281.700653,294.048706 
	C280.918671,294.746429 280.418915,295.345551 279.947205,295.960052 
	C279.975281,295.975403 279.974792,295.911438 279.696960,295.957947 
	C279.208344,296.298340 278.997589,296.592224 278.825256,296.881226 
	C278.863647,296.876312 278.852051,296.799774 278.543396,296.862671 
	C277.436523,297.574341 276.638336,298.223083 275.873566,298.894775 
	C275.906982,298.917694 275.890503,298.838348 275.512451,298.878052 
	C265.040161,304.088959 255.491135,301.732880 246.110703,296.831848 
	C246.093918,296.846771 246.139389,296.818298 246.139389,296.818298 
	C239.655930,290.102386 239.655930,290.102386 235.798523,277.429474 
	C231.969788,284.980896 225.448700,284.118927 218.930878,283.859558 
	C205.859955,283.339386 192.772644,283.227051 179.702850,282.686127 
	C175.770233,282.523346 171.873230,281.500488 167.550323,280.892151 
	C167.140717,280.912689 167.204239,280.895081 167.080322,280.650818 
	C166.634354,280.249115 166.312302,280.091644 165.919434,279.725830 
	C165.688110,279.257263 165.464523,279.073944 165.133301,278.602356 
	C163.472794,274.314331 165.316879,271.540710 168.093658,269.078247 
	C168.059891,269.068451 168.043213,269.136780 168.429474,269.107727 
	C172.973679,268.190674 176.856293,267.003235 177.034912,261.698944 
	C170.370316,258.899261 164.373077,260.718933 159.850220,266.888794 
	C159.910034,266.942719 159.818451,266.810211 159.511246,266.988220 
	C156.030243,272.244690 154.189316,277.426849 157.982971,283.028473 
	C157.997620,283.010620 157.953903,283.027069 157.953903,283.027069 
	C162.789978,291.352661 171.603973,293.121948 181.179749,287.689301 
	C186.252457,284.811401 187.295044,284.727539 193.101456,286.872223 
	C191.923019,291.587067 188.466034,294.439911 184.552414,296.490814 
	C173.957870,302.042664 164.024979,300.335693 154.518265,292.892212 
	C153.825821,292.382629 153.458878,291.988678 152.852386,291.463135 
	C152.281204,290.920044 151.949570,290.508545 151.376541,289.983795 
M236.019150,234.978333 
	C236.019150,234.978333 236.084503,234.942978 235.719009,234.278366 
	C233.482742,233.828461 231.246475,233.378555 228.306381,232.679138 
	C221.179199,232.913040 218.855591,227.317383 216.057480,221.256729 
	C213.061676,225.786179 210.669113,229.403580 208.858627,232.140915 
	C215.931458,235.616638 222.455627,238.822723 229.040085,242.920486 
	C229.003586,245.275772 228.967087,247.631042 228.748108,250.197815 
	C228.748108,250.197815 228.751617,250.477127 228.252884,251.020691 
	C226.680908,254.995758 225.108948,258.970825 223.536972,262.945892 
	C224.241196,263.300446 224.945419,263.655029 225.649643,264.009583 
	C227.079773,261.667877 228.509903,259.326141 230.002197,256.971863 
	C230.002197,256.971863 229.972946,256.915558 230.450027,256.490112 
	C230.757538,255.699554 231.065048,254.908997 231.255707,254.156845 
	C231.255707,254.156845 231.296906,254.272766 231.831436,253.875488 
	C232.597824,252.279022 233.364212,250.682556 234.039688,249.048691 
	C234.039688,249.048691 234.106644,249.120682 234.661377,248.718582 
	C235.536270,247.156677 236.491470,245.633484 237.267334,244.023834 
	C238.441727,241.587372 240.336273,239.109665 237.444122,236.634552 
	C237.444122,236.634552 237.529770,236.638443 237.334839,236.074463 
	C236.907990,235.687271 236.481140,235.300079 236.019150,234.978333 
M252.161728,289.399597 
	C253.713409,290.355682 255.185928,291.485016 256.830933,292.236877 
	C262.915466,295.017792 269.735199,293.639404 274.168793,288.869263 
	C279.023102,283.646454 280.189453,276.163086 277.040405,270.444641 
	C273.737030,264.445953 267.143005,261.167023 260.778107,262.471191 
	C261.025757,266.230164 262.473938,268.967010 266.279846,270.416779 
	C269.623016,271.690338 270.562988,274.553497 269.487091,277.775208 
	C268.235321,281.523560 265.902130,284.205078 261.393402,283.557617 
	C257.781128,283.038818 256.056030,281.208710 255.789398,277.261353 
	C255.532471,273.457947 254.131073,269.731842 252.897842,264.571411 
	C250.619476,267.254028 249.049576,268.529480 248.220978,270.177612 
	C244.691376,277.198120 246.732910,283.345154 252.161728,289.399597 
M212.146652,264.588745 
	C213.061996,260.744049 214.170944,256.930359 214.794281,253.038910 
	C215.032608,251.551041 214.159836,249.885223 213.793396,248.300491 
	C212.736633,249.440765 211.192337,250.408646 210.716492,251.754333 
	C209.402359,255.470718 208.440964,259.323242 207.548782,263.170319 
	C207.288437,264.292969 207.728653,265.578064 207.847748,266.788696 
	C209.209702,266.320343 210.571655,265.851959 212.146652,264.588745 
z"/>
<path fill="#F26225" opacity="1.000000" stroke="none" 
	d="
M227.699677,219.159729 
	C227.424622,218.681427 227.149567,218.203125 226.995422,217.182434 
	C226.523621,214.806030 226.164169,212.850937 225.288254,211.163986 
	C223.613464,207.938416 224.141571,206.371643 227.984268,205.794434 
	C229.417267,205.579178 230.630219,203.899033 231.947998,202.920471 
	C231.952484,202.954086 231.884674,202.952774 232.120026,202.865448 
	C232.584122,202.538971 232.812836,202.299805 233.165710,201.805786 
	C233.841431,201.045441 234.392990,200.539917 234.944534,200.034393 
	C239.688202,198.129181 237.282959,193.769089 238.293030,190.570038 
	C238.900482,188.646088 240.312729,186.976242 241.702499,185.431946 
	C243.416489,191.028412 245.533356,192.227692 252.026459,191.895172 
	C259.826294,191.495743 267.642792,190.996796 275.442993,191.119415 
	C291.565063,191.372894 306.299866,195.394577 317.537476,208.030823 
	C318.201813,208.777802 319.503418,208.958008 320.508484,209.401962 
	C320.508484,209.401962 320.627625,209.428818 320.527893,209.858017 
	C321.327972,211.537994 322.227783,212.788757 323.127594,214.039520 
	C323.127594,214.039520 323.315521,214.124832 323.262695,214.604263 
	C323.821472,216.052002 324.433105,217.020309 325.044769,217.988602 
	C325.044769,217.988602 324.994385,217.992218 324.973633,218.389999 
	C326.040833,228.270554 327.638641,237.729385 328.085419,247.242264 
	C328.622650,258.681305 324.077362,268.846252 318.182251,278.420074 
	C315.795929,282.295532 313.406525,286.169159 311.018555,290.043610 
	C311.018555,290.043610 310.996490,289.999390 310.661346,290.018188 
	C308.885681,291.368195 307.445129,292.699402 306.004608,294.030640 
	C306.004608,294.030640 305.998657,293.993500 306.016418,294.001526 
	C300.921661,296.526184 295.850403,299.131805 290.682434,301.528931 
	C287.119843,303.181396 283.423462,304.545288 279.360809,305.676636 
	C277.916718,303.862457 276.898682,302.409882 275.897217,300.604431 
	C275.906036,299.780487 275.898285,299.309418 275.890503,298.838348 
	C275.890503,298.838348 275.906982,298.917694 276.214783,298.894348 
	C277.299042,298.180603 278.075531,297.490173 278.852051,296.799774 
	C278.852051,296.799774 278.863647,296.876312 279.066467,296.776031 
	C279.504456,296.420959 279.739624,296.166199 279.974792,295.911438 
	C279.974792,295.911438 279.975281,295.975403 280.246399,295.883148 
	C281.005951,295.177338 281.494415,294.563751 281.982880,293.950165 
	C281.982880,293.950165 282.005249,294.001129 282.200592,293.872406 
	C282.586823,293.466217 282.777740,293.188782 282.968628,292.911316 
	C282.968628,292.911316 282.978699,292.979492 283.161011,292.828186 
	C283.523102,292.375092 283.702850,292.073303 283.882599,291.771515 
	C283.882599,291.771515 283.871918,291.858734 284.180542,291.795654 
	C289.516663,287.494873 291.714630,277.855988 288.979767,270.790497 
	C287.264648,266.359528 284.351318,262.259460 283.383087,257.711334 
	C282.493866,253.534317 280.084045,252.083099 276.844086,250.549225 
	C269.770844,247.200592 262.285614,248.143661 254.884155,248.069260 
	C254.884155,248.069260 254.958069,248.035828 254.973282,247.666031 
	C254.517670,244.898926 254.046829,242.501617 253.531281,239.876663 
	C254.637527,239.400909 255.893188,239.188904 256.664978,238.462662 
	C258.426361,236.805237 261.653534,234.321198 261.271759,233.190155 
	C259.752716,228.689926 262.698547,222.708694 257.176117,219.622101 
	C256.111603,219.027130 254.399918,218.773621 253.305237,219.193268 
	C249.045395,220.826294 244.913773,222.793762 240.734436,224.636810 
	C240.734436,224.636810 240.603378,224.662262 240.490784,224.255371 
	C237.794785,221.477585 235.030365,220.572418 231.879242,222.799042 
	C231.353973,222.725815 230.828705,222.652588 230.138779,222.089371 
	C229.969421,221.402481 229.964706,221.205582 229.894836,220.743927 
	C229.544495,220.023087 229.259277,219.566971 228.654785,219.105118 
	C228.123550,219.119492 227.911606,219.139603 227.699677,219.159729 
z"/>
<path fill="#FEF9F4" opacity="1.000000" stroke="none" 
	d="
M177.941467,200.070709 
	C188.665497,200.089371 188.669357,200.089355 188.719635,210.407684 
	C188.739929,214.571579 188.639435,218.739014 188.781906,222.898392 
	C188.882263,225.828186 187.713287,227.293289 184.756653,227.269409 
	C177.098343,227.207565 169.432312,227.306473 161.789627,226.929825 
	C160.581848,226.870285 158.552277,224.720673 158.484299,223.452606 
	C158.137070,216.975220 158.370544,210.469055 158.271393,203.974945 
	C158.225693,200.982269 159.501709,199.798080 162.463989,199.893158 
	C167.456818,200.053391 172.455856,200.020599 177.941467,200.070709 
z"/>
<path fill="#FDF9F3" opacity="1.000000" stroke="none" 
	d="
M235.017563,199.650543 
	C234.392990,200.539917 233.841431,201.045441 232.902405,201.849121 
	C232.304840,202.415771 232.094757,202.684265 231.884674,202.952774 
	C231.884674,202.952774 231.952484,202.954086 231.614059,202.950684 
	C230.471069,203.328110 229.666504,203.708954 228.634308,204.073730 
	C228.079269,204.096146 227.837723,204.260712 227.312653,204.579865 
	C225.950104,204.704803 224.957001,204.801254 223.662628,204.743896 
	C219.916382,202.767365 216.471390,200.944595 213.026382,199.121841 
	C208.179611,196.280609 206.858871,192.922256 208.252625,186.983231 
	C209.510971,181.621216 215.078690,176.725372 220.588120,176.136246 
	C233.182922,174.789490 240.334137,186.195190 235.017563,199.650543 
z"/>
<path fill="#FEF6EC" opacity="1.000000" stroke="none" 
	d="
M97.105423,217.929047 
	C96.719299,214.898239 97.249840,212.295105 100.897301,212.276276 
	C118.619102,212.184784 136.341644,212.234924 154.622223,212.234924 
	C152.470978,216.664108 150.343384,219.360001 145.137939,219.221558 
	C131.838684,218.867874 118.523270,219.157043 105.215073,219.071655 
	C102.774490,219.056015 100.337463,218.487305 97.514442,218.018997 
	C97.130089,217.864120 97.052162,217.959381 97.105423,217.929047 
z"/>
<path fill="#DA7646" opacity="1.000000" stroke="none" 
	d="
M320.382080,209.096680 
	C319.503418,208.958008 318.201813,208.777802 317.537476,208.030823 
	C306.299866,195.394577 291.565063,191.372894 275.442993,191.119415 
	C267.642792,190.996796 259.826294,191.495743 252.026459,191.895172 
	C245.533356,192.227692 243.416489,191.028412 242.028381,185.280106 
	C241.815796,184.402847 241.616516,183.917191 241.198730,182.916794 
	C240.891434,182.004089 240.802628,181.606125 240.713821,181.208145 
	C240.713821,181.208145 240.986526,180.999237 241.127304,180.900818 
	C241.506805,181.027145 241.890015,181.212662 241.963211,181.482346 
	C244.093307,189.329193 249.518463,189.756073 256.674866,189.519791 
	C268.221436,189.138550 279.914703,189.635849 291.372437,191.110657 
	C303.292358,192.644928 313.150726,198.773468 320.382080,209.096680 
z"/>
<path fill="#CB8D68" opacity="1.000000" stroke="none" 
	d="
M212.870911,199.415680 
	C216.471390,200.944595 219.916382,202.767365 223.356354,204.842880 
	C222.555115,205.740829 221.758911,206.386017 220.962708,207.031204 
	C217.228851,205.112823 213.494980,203.194443 209.419464,201.166412 
	C210.290344,200.607666 211.502899,200.158600 212.870911,199.415680 
z"/>
<path fill="#F26225" opacity="1.000000" stroke="none" 
	d="
M240.453613,181.194244 
	C240.802628,181.606125 240.891434,182.004089 241.041565,182.702744 
	C240.409988,182.745544 239.717056,182.487671 239.024139,182.229828 
	C239.413895,181.879990 239.803650,181.530151 240.453613,181.194244 
z"/>
<path fill="#F26225" opacity="1.000000" stroke="none" 
	d="
M208.774429,180.163971 
	C208.856781,179.988739 209.012970,179.895615 209.169159,179.802490 
	C209.062195,179.950363 208.955231,180.098206 208.774429,180.163971 
z"/>
<path fill="#F26225" opacity="1.000000" stroke="none" 
	d="
M186.163116,236.220001 
	C185.984650,236.135696 185.889725,235.975861 185.794815,235.816025 
	C185.945450,235.925491 186.096069,236.034973 186.163116,236.220001 
z"/>
<path fill="#F26225" opacity="1.000000" stroke="none" 
	d="
M183.825760,231.775696 
	C184.007355,231.861221 184.103943,232.023407 184.200546,232.185593 
	C184.047287,232.074524 183.894028,231.963455 183.825760,231.775696 
z"/>
<path fill="#F16326" opacity="1.000000" stroke="none" 
	d="
M275.880615,300.957275 
	C276.898682,302.409882 277.916718,303.862457 278.967590,305.679138 
	C257.856812,306.053589 236.711533,305.924896 215.570831,306.177704 
	C210.637543,306.236664 208.794022,304.797333 209.940735,299.947113 
	C210.283035,298.499298 210.319412,296.970184 210.742874,295.552032 
	C212.768784,288.767578 211.567123,286.918854 204.492416,286.079834 
	C203.424683,285.953217 202.374619,285.677673 201.316391,285.471039 
	C201.361710,285.005157 201.407028,284.539307 201.452347,284.073456 
	C206.173187,284.512756 210.889801,285.245056 215.615997,285.313110 
	C220.876678,285.388947 226.181183,285.140350 231.398285,284.487274 
	C234.438110,284.106812 236.536697,284.499908 236.848099,287.709595 
	C237.369247,293.080902 241.130203,295.145447 245.774033,296.835754 
	C246.139389,296.818298 246.093918,296.846771 246.188263,297.177185 
	C247.505981,298.541321 248.572083,299.934265 249.978470,300.549957 
	C258.522339,304.290192 267.180084,305.149445 275.880615,300.957275 
z"/>
<path fill="#EE6328" opacity="1.000000" stroke="none" 
	d="
M165.177841,278.967621 
	C165.464523,279.073944 165.688110,279.257263 166.068619,279.946350 
	C166.593826,280.548492 166.899033,280.721771 167.204239,280.895081 
	C167.204239,280.895081 167.140717,280.912689 167.145569,280.879852 
	C169.336517,281.882629 171.529755,282.903595 173.706100,283.959320 
	C175.002258,284.588104 176.271896,285.271545 178.006775,286.163422 
	C171.843185,289.702942 166.289307,289.246643 161.836365,285.442780 
	C160.846008,284.596802 159.706253,283.925690 158.294586,283.100586 
	C157.953903,283.027069 157.997620,283.010620 158.007324,282.569489 
	C158.617493,277.022308 159.217972,271.916260 159.818451,266.810211 
	C159.818451,266.810211 159.910034,266.942719 160.209671,266.849792 
	C164.959473,265.264832 168.507675,260.264252 174.822311,263.201996 
	C172.278244,265.429199 170.160721,267.282990 168.043213,269.136780 
	C168.043213,269.136780 168.059891,269.068451 167.735031,269.111206 
	C161.652008,271.831177 161.085983,274.319489 165.177841,278.967621 
z"/>
<path fill="#FDFBF6" opacity="1.000000" stroke="none" 
	d="
M102.178604,231.861374 
	C100.989449,233.297012 99.959297,235.672409 98.547005,235.926849 
	C95.201340,236.529678 91.662788,236.282272 88.227844,236.029800 
	C87.246635,235.957657 86.353233,234.690781 85.419571,233.971756 
	C86.392586,233.300522 87.332451,232.112869 88.344383,232.047913 
	C92.607201,231.774277 96.891510,231.835693 101.641602,231.791138 
	C102.115234,231.807770 102.163910,231.837067 102.178604,231.861374 
z"/>
<path fill="#DA7646" opacity="1.000000" stroke="none" 
	d="
M311.335205,289.931091 
	C313.406525,286.169159 315.795929,282.295532 318.182251,278.420074 
	C324.077362,268.846252 328.622650,258.681305 328.085419,247.242264 
	C327.638641,237.729385 326.040833,228.270554 324.991577,218.372208 
	C330.532745,228.113739 331.457672,239.022430 330.131409,250.232224 
	C328.332367,265.437531 323.544006,279.299896 311.335205,289.931091 
z"/>
<path fill="#DA7646" opacity="1.000000" stroke="none" 
	d="
M306.329163,293.961182 
	C307.445129,292.699402 308.885681,291.368195 310.684418,290.027039 
	C309.579681,291.308655 308.116699,292.600189 306.329163,293.961182 
z"/>
<path fill="#DA7646" opacity="1.000000" stroke="none" 
	d="
M323.100891,213.704422 
	C322.227783,212.788757 321.327972,211.537994 320.518524,209.918365 
	C321.430664,210.822769 322.252441,212.096039 323.100891,213.704422 
z"/>
<path fill="#DA7646" opacity="1.000000" stroke="none" 
	d="
M325.048523,217.637924 
	C324.433105,217.020309 323.821472,216.052002 323.248230,214.706436 
	C323.875153,215.315201 324.463715,216.301224 325.048523,217.637924 
z"/>
<path fill="#E66C36" opacity="1.000000" stroke="none" 
	d="
M251.886719,289.157654 
	C246.732910,283.345154 244.691376,277.198120 248.220978,270.177612 
	C249.049576,268.529480 250.619476,267.254028 252.897842,264.571411 
	C254.131073,269.731842 255.532471,273.457947 255.789398,277.261353 
	C256.056030,281.208710 257.781128,283.038818 261.393402,283.557617 
	C265.902130,284.205078 268.235321,281.523560 269.487091,277.775208 
	C270.562988,274.553497 269.623016,271.690338 266.279846,270.416779 
	C262.473938,268.967010 261.025757,266.230164 260.778107,262.471191 
	C267.143005,261.167023 273.737030,264.445953 277.040405,270.444641 
	C280.189453,276.163086 279.023102,283.646454 274.168793,288.869263 
	C269.735199,293.639404 262.915466,295.017792 256.830933,292.236877 
	C255.185928,291.485016 253.713409,290.355682 251.886719,289.157654 
z"/>
<path fill="#E36C37" opacity="1.000000" stroke="none" 
	d="
M228.751617,250.477127 
	C228.751617,250.477127 228.748108,250.197815 229.058014,249.827881 
	C229.238541,246.981567 229.109161,244.505203 228.979797,242.028824 
	C222.455627,238.822723 215.931458,235.616638 208.858627,232.140915 
	C210.669113,229.403580 213.061676,225.786179 216.057480,221.256729 
	C218.855591,227.317383 221.179199,232.913040 228.964478,232.994629 
	C231.776535,233.854416 233.930527,234.398697 236.084503,234.942963 
	C236.084503,234.942978 236.019150,234.978333 236.125732,235.229767 
	C236.664795,235.866943 237.097275,236.252701 237.529770,236.638443 
	C237.529770,236.638443 237.444122,236.634552 237.421783,236.951782 
	C236.301849,241.219559 235.204254,245.170120 234.106659,249.120682 
	C234.106644,249.120682 234.039688,249.048691 233.756012,249.184753 
	C232.747177,250.971451 232.022034,252.622116 231.296906,254.272766 
	C231.296906,254.272766 231.255707,254.156845 231.059906,254.346832 
	C230.567047,255.329727 230.269989,256.122650 229.972931,256.915558 
	C229.972946,256.915558 230.002197,256.971863 229.669174,256.816193 
	C229.141296,254.599396 228.946457,252.538254 228.751617,250.477127 
z"/>
<path fill="#DA7646" opacity="1.000000" stroke="none" 
	d="
M254.918518,248.419983 
	C262.285614,248.143661 269.770844,247.200592 276.844086,250.549225 
	C280.084045,252.083099 282.493866,253.534317 283.383087,257.711334 
	C284.351318,262.259460 287.264648,266.359528 288.979767,270.790497 
	C291.714630,277.855988 289.516663,287.494873 284.137054,291.789337 
	C291.021088,277.423981 289.656860,270.073120 277.128265,256.643005 
	C278.049805,255.935883 278.960693,255.236908 280.282318,254.222778 
	C273.474396,250.584061 266.710693,249.806046 259.668091,250.064484 
	C258.114288,250.121506 256.525543,249.227020 254.918518,248.419983 
z"/>
<path fill="#DA7646" opacity="1.000000" stroke="none" 
	d="
M240.922211,224.854706 
	C244.913773,222.793762 249.045395,220.826294 253.305237,219.193268 
	C254.399918,218.773621 256.111603,219.027130 257.176117,219.622101 
	C262.698547,222.708694 259.752716,228.689926 261.271759,233.190155 
	C261.653534,234.321198 258.426361,236.805237 256.664978,238.462662 
	C255.893188,239.188904 254.637527,239.400909 253.531281,239.876663 
	C254.046829,242.501617 254.517670,244.898926 254.952332,247.700775 
	C253.192902,244.772095 251.469635,241.438889 249.500931,237.630936 
	C253.755142,236.712540 259.699707,238.545761 259.780060,232.904861 
	C259.836914,228.908142 257.851166,224.177795 255.234665,221.076111 
	C253.232224,218.702347 246.796463,222.101089 243.610977,226.503525 
	C242.791779,226.034836 241.950882,225.553726 240.922211,224.854706 
z"/>
<path fill="#DA7646" opacity="1.000000" stroke="none" 
	d="
M212.040131,264.986145 
	C210.571655,265.851959 209.209702,266.320343 207.847748,266.788696 
	C207.728653,265.578064 207.288437,264.292969 207.548782,263.170319 
	C208.440964,259.323242 209.402359,255.470718 210.716492,251.754333 
	C211.192337,250.408646 212.736633,249.440765 213.793396,248.300491 
	C214.159836,249.885223 215.032608,251.551041 214.794281,253.038910 
	C214.170944,256.930359 213.061996,260.744049 212.040131,264.986145 
z"/>
<path fill="#DA7646" opacity="1.000000" stroke="none" 
	d="
M275.897217,300.604431 
	C267.180084,305.149445 258.522339,304.290192 249.978470,300.549957 
	C248.572083,299.934265 247.505981,298.541321 246.205048,297.162262 
	C255.491135,301.732880 265.040161,304.088959 275.512451,298.878052 
	C275.898285,299.309418 275.906036,299.780487 275.897217,300.604431 
z"/>
<path fill="#DA7646" opacity="1.000000" stroke="none" 
	d="
M168.429474,269.107727 
	C170.160721,267.282990 172.278244,265.429199 174.822311,263.201996 
	C168.507675,260.264252 164.959473,265.264832 160.149841,266.795837 
	C164.373077,260.718933 170.370316,258.899261 177.034912,261.698944 
	C176.856293,267.003235 172.973679,268.190674 168.429474,269.107727 
z"/>
<path fill="#DD7140" opacity="1.000000" stroke="none" 
	d="
M221.053436,207.370514 
	C221.758911,206.386017 222.555115,205.740829 223.657593,204.996674 
	C224.957001,204.801254 225.950104,204.704803 227.529358,204.573425 
	C228.411560,204.467606 228.660370,204.318039 228.861938,204.089783 
	C229.666504,203.708954 230.471069,203.328110 231.609573,202.917053 
	C230.630219,203.899033 229.417267,205.579178 227.984268,205.794434 
	C224.141571,206.371643 223.613464,207.938416 225.288254,211.163986 
	C226.164169,212.850937 226.523621,214.806030 226.954178,216.903625 
	C224.909393,214.014771 223.026764,210.862289 221.053436,207.370514 
z"/>
<path fill="#D67B52" opacity="1.000000" stroke="none" 
	d="
M228.502258,250.748901 
	C228.946457,252.538254 229.141296,254.599396 229.638092,256.822479 
	C228.509903,259.326141 227.079773,261.667877 225.649643,264.009583 
	C224.945419,263.655029 224.241196,263.300446 223.536972,262.945892 
	C225.108948,258.970825 226.680908,254.995758 228.502258,250.748901 
z"/>
<path fill="#DA7646" opacity="1.000000" stroke="none" 
	d="
M159.511246,266.988220 
	C159.217972,271.916260 158.617493,277.022308 157.992676,282.587341 
	C154.189316,277.426849 156.030243,272.244690 159.511246,266.988220 
z"/>
<path fill="#DA7646" opacity="1.000000" stroke="none" 
	d="
M165.133301,278.602356 
	C161.085983,274.319489 161.652008,271.831177 167.768799,269.121033 
	C165.316879,271.540710 163.472794,274.314331 165.133301,278.602356 
z"/>
<path fill="#D67B52" opacity="1.000000" stroke="none" 
	d="
M234.384018,248.919632 
	C235.204254,245.170120 236.301849,241.219559 237.426544,236.909180 
	C240.336273,239.109665 238.441727,241.587372 237.267334,244.023834 
	C236.491470,245.633484 235.536270,247.156677 234.384018,248.919632 
z"/>
<path fill="#DA7646" opacity="1.000000" stroke="none" 
	d="
M232.279037,222.915909 
	C235.030365,220.572418 237.794785,221.477585 240.474396,224.190674 
	C237.939987,224.032822 235.309418,223.532806 232.279037,222.915909 
z"/>
<path fill="#D67B52" opacity="1.000000" stroke="none" 
	d="
M229.009949,242.474655 
	C229.109161,244.505203 229.238541,246.981567 229.149261,249.722137 
	C228.967087,247.631042 229.003586,245.275772 229.009949,242.474655 
z"/>
<path fill="#D67B52" opacity="1.000000" stroke="none" 
	d="
M231.564178,254.074127 
	C232.022034,252.622116 232.747177,250.971451 233.801453,249.203445 
	C233.364212,250.682556 232.597824,252.279022 231.564178,254.074127 
z"/>
<path fill="#D67B52" opacity="1.000000" stroke="none" 
	d="
M235.901764,234.610657 
	C233.930527,234.398697 231.776535,233.854416 229.316376,233.119385 
	C231.246475,233.378555 233.482742,233.828461 235.901764,234.610657 
z"/>
<path fill="#DA7646" opacity="1.000000" stroke="none" 
	d="
M278.543396,296.862671 
	C278.075531,297.490173 277.299042,298.180603 276.181335,298.871460 
	C276.638336,298.223083 277.436523,297.574341 278.543396,296.862671 
z"/>
<path fill="#DA7646" opacity="1.000000" stroke="none" 
	d="
M281.700653,294.048706 
	C281.494415,294.563751 281.005951,295.177338 280.218323,295.867798 
	C280.418915,295.345551 280.918671,294.746429 281.700653,294.048706 
z"/>
<path fill="#D67B52" opacity="1.000000" stroke="none" 
	d="
M230.211487,256.702820 
	C230.269989,256.122650 230.567047,255.329727 231.118347,254.327621 
	C231.065048,254.908997 230.757538,255.699554 230.211487,256.702820 
z"/>
<path fill="#DA7646" opacity="1.000000" stroke="none" 
	d="
M227.722351,219.467590 
	C227.911606,219.139603 228.123550,219.119492 228.670197,219.402405 
	C229.038544,220.102631 229.072205,220.499817 229.019119,220.983307 
	C228.932388,221.069611 228.758896,221.242203 228.758896,221.242203 
	C228.420944,220.753281 228.082993,220.264374 227.722351,219.467590 
z"/>
<path fill="#D67B52" opacity="1.000000" stroke="none" 
	d="
M237.432312,236.356445 
	C237.097275,236.252701 236.664795,235.866943 236.143311,235.197037 
	C236.481140,235.300079 236.907990,235.687271 237.432312,236.356445 
z"/>
<path fill="#DA7646" opacity="1.000000" stroke="none" 
	d="
M229.959976,221.008682 
	C229.964706,221.205582 229.969421,221.402481 229.952393,221.894333 
	C229.611969,222.040665 229.293243,221.892044 228.866714,221.492828 
	C228.758896,221.242203 228.932388,221.069611 229.231781,221.015381 
	C229.531158,220.961166 229.959976,221.008682 229.959976,221.008682 
z"/>
<path fill="#DA7646" opacity="1.000000" stroke="none" 
	d="
M167.080322,280.650818 
	C166.899033,280.721771 166.593826,280.548492 166.139435,280.154663 
	C166.312302,280.091644 166.634354,280.249115 167.080322,280.650818 
z"/>
<path fill="#DA7646" opacity="1.000000" stroke="none" 
	d="
M279.696960,295.957947 
	C279.739624,296.166199 279.504456,296.420959 279.028076,296.780945 
	C278.997589,296.592224 279.208344,296.298340 279.696960,295.957947 
z"/>
<path fill="#DA7646" opacity="1.000000" stroke="none" 
	d="
M282.702637,292.983734 
	C282.777740,293.188782 282.586823,293.466217 282.172974,293.869019 
	C282.112213,293.681641 282.274414,293.368896 282.702637,292.983734 
z"/>
<path fill="#DA7646" opacity="1.000000" stroke="none" 
	d="
M283.616638,291.872803 
	C283.702850,292.073303 283.523102,292.375092 283.126648,292.830811 
	C283.056885,292.647858 283.203766,292.311005 283.616638,291.872803 
z"/>
<path fill="#DD7140" opacity="1.000000" stroke="none" 
	d="
M229.894836,220.743927 
	C229.959976,221.008682 229.531158,220.961166 229.318512,220.929077 
	C229.072205,220.499817 229.038544,220.102631 228.989471,219.408173 
	C229.259277,219.566971 229.544495,220.023087 229.894836,220.743927 
z"/>
<path fill="#DD7140" opacity="1.000000" stroke="none" 
	d="
M232.120026,202.865448 
	C232.094757,202.684265 232.304840,202.415771 232.778229,202.103943 
	C232.812836,202.299805 232.584122,202.538971 232.120026,202.865448 
z"/>
<path fill="#CB8D68" opacity="1.000000" stroke="none" 
	d="
M228.634308,204.073730 
	C228.660370,204.318039 228.411560,204.467606 227.898788,204.544922 
	C227.837723,204.260712 228.079269,204.096146 228.634308,204.073730 
z"/>
</svg>